<mxfile host="Electron" modified="2024-02-06T04:56:07.703Z" agent="Mozilla/5.0 (X11; Linux x86_64) AppleWebKit/537.36 (KHTML, like Gecko) draw.io/22.1.21 Chrome/120.0.6099.109 Electron/28.1.0 Safari/537.36" etag="Uct9rn-bDoX0QfdOokMP" version="22.1.21" type="device">
  <diagram name="PÃ¡gina-1" id="KCZHRsNFGOOAUEGrP5nl">
    <mxGraphModel dx="925" dy="585" grid="1" gridSize="10" guides="1" tooltips="1" connect="1" arrows="1" fold="1" page="1" pageScale="1" pageWidth="827" pageHeight="1169" math="0" shadow="0">
      <root>
        <mxCell id="0" />
        <mxCell id="1" parent="0" />
        <mxCell id="8vS-f6j0tsZiRI6oT4Nr-9" value="" style="group;fillColor=#232136;" vertex="1" connectable="0" parent="1">
          <mxGeometry x="140" y="190" width="580" height="350" as="geometry" />
        </mxCell>
        <mxCell id="8vS-f6j0tsZiRI6oT4Nr-8" value="" style="rounded=0;whiteSpace=wrap;html=1;fontFamily=Helvetica;fontSize=11;fontColor=#666666;fillColor=none;strokeColor=none;" vertex="1" parent="8vS-f6j0tsZiRI6oT4Nr-9">
          <mxGeometry width="580" height="350" as="geometry" />
        </mxCell>
        <mxCell id="8vS-f6j0tsZiRI6oT4Nr-7" value="" style="shape=image;verticalLabelPosition=bottom;labelBackgroundColor=default;verticalAlign=top;aspect=fixed;imageAspect=0;image=https://www.j2inn.com/hubfs/Campus-whole.svg;imageBackground=#232136;imageBorder=none;" vertex="1" parent="8vS-f6j0tsZiRI6oT4Nr-9">
          <mxGeometry x="10" y="10" width="558.93" height="320" as="geometry" />
        </mxCell>
      </root>
    </mxGraphModel>
  </diagram>
</mxfile>
